<svg xmlns="http://www.w3.org/2000/svg" viewBox="0 0 288 230.4"><defs><style>.cls-1{fill:#1da1f2;}.cls-2{fill:#657786;}.cls-3{fill:#fff;}</style></defs><title>tnl logo</title><g id="blue"><path class="cls-1" d="M288,115.2a95.67,95.67,0,0,1-11.55,45.2C267.77,176.69,255,190.32,240.12,201,212.36,220.89,177.65,230.4,144,230.4S75.64,220.89,47.88,201C33,190.32,20.23,176.69,11.55,160.4a94.24,94.24,0,0,1,0-90.4C20.23,53.71,33,40.08,47.88,29.42,75.64,9.51,110.35,0,144,0s68.36,9.51,96.12,29.42C255,40.08,267.77,53.71,276.45,70A95.67,95.67,0,0,1,288,115.2ZM164.9,150.63l-4,15.08-2,7.54-1,3.77-.5,1.88-.25.94-.06.24,0,.12c0,.05,0,0,.08,0H254.6s.09,0,.1,0l0-.12.06-.24.93-3.79,1.86-7.58,3.71-15.16,1.86-7.58.93-3.79.46-1.89.23-.95s0-.08,0-.08H213.67c-.05,0,0,0,0-.08l0-.12.06-.24,1-3.77,2-7.54,4-15.08,16-60.33,2-7.54,1-3.77.25-.94.06-.24c0-.1-.14,0-.2,0H194.61c-.07,0,0,.07,0,.11l-1,3.77-8,30-4,15-.5,1.87-.13.47-.06.23c0,.06,0,.26-.08.17l-.67-.77a37.73,37.73,0,0,0-13-9.48l-.23-.1s-.16,0-.09,0h14.42c.07,0,.07-.17.08-.21l.12-.47.92-3.77,1.84-7.53,3.69-15.06L189.75,46l.92-3.77.46-1.88.23-.94c0-.06-.06,0-.09,0H43.47s-.05,0-.06,0l-.06.24-.23.95-1.86,7.58L33.84,78.43l-.46,1.89,0,.12s-.07.1,0,.1h51c.07,0,.2-.06.17.06l-.06.24-.25.94-2,7.54-16,60.33-8,30.17-.06.24c0,.06-.1.18,0,.18h45.35c.06,0,.07-.18.08-.21l.06-.24.13-.47,4-15.08,8.05-30.15,1-3.77.13-.47.06-.24c0-.07,0,.07,0,.1l0,.11q.19.46.4.91.41.91.87,1.8a37.73,37.73,0,0,0,46.51,18.1Z"/><path class="cls-1" d="M137,80.54A37.59,37.59,0,0,0,132.26,83q-1.14.69-2.22,1.47-.55.39-1.09.81s-.11.1-.09,0l0-.16.08-.31.17-.63.69-2.57L130,81l.09-.32s0-.12.07-.12H137Z"/></g><g id="grey"><path class="cls-2" d="M189.64,115.2a37.73,37.73,0,1,1-37.73-37.73A37.73,37.73,0,0,1,189.64,115.2ZM124,137.54l16.87.43,4.31-14.41,8,14.58h15.92l11.39-45.26H163.95l-4,14.5-8-14.07H136.29Z"/></g><g id="white"><polygon class="cls-3" points="123.99 137.54 136.29 93.31 151.95 93.31 159.97 107.38 163.94 92.88 180.51 92.88 169.12 138.14 153.2 138.14 145.18 123.56 140.86 137.97 123.99 137.54"/><path class="cls-3" d="M117,129.59l-9.53,35.69-2.38,8.92-1.19,4.46-.3,1.12-.07.28,0,.14c0,.08-.09,0-.13,0H58.07s0,0,0-.07l0-.07,0-.14.3-1.12L59,176.6l2.37-8.93L70.86,132l9.46-35.71,2.37-8.93,1.18-4.46.59-2.23s0-.09,0-.09H33.35c-.08,0,0-.08,0-.11l.14-.56.27-1.12,1.1-4.49,4.39-17.94,2.2-9,1.1-4.49.55-2.24.27-1.12,0-.14s.12,0,.14,0H191.32c.12,0,0,.18,0,.24l-.14.56-8.88,36.27-.56,2.27-.28,1.13-.14.57,0,.14s0,0-.07,0H166.85a.68.68,0,0,1-.27-.1l-.27-.11-.55-.22-1.1-.41q-1.1-.39-2.21-.72a37.73,37.73,0,0,0-21.81.22q-1.12.35-2.21.77l-1.09.44-.27.12a.68.68,0,0,1-.29,0h-6.41s-.23,0-.25,0l-.08.28-.15.56-.6,2.25-.3,1.13-.08.28c0,.09,0,.19-.1.27l-.48.38q-1,.77-1.87,1.59a37.27,37.27,0,0,0-6.3,7.47A37.72,37.72,0,0,0,117,129.59"/><path class="cls-3" d="M180.83,91l8-30,4-15,1-3.75.5-1.87.25-.94s0-.11,0-.11H240s.07,0,.06,0l-.5,1.87-2,7.49-4,15-15.89,60-4,15-.06.23,0,.12c0,.06.05,0,.09,0H264.6c.07,0,.21-.07.18.05l-.06.24-.12.47-.46,1.88-1.84,7.53-3.69,15.06-3.69,15.06-.12.47c0,.07,0,.42-.16.42H157c-.08,0,0-.07,0-.11l.5-1.86,2-7.45,4-14.9,1-3.72.25-.93.12-.47c0-.08,0-.15.12-.18l.23-.08q.91-.34,1.81-.74A37.73,37.73,0,0,0,180.83,91Z"/></g></svg>